HIERARCHY
ROOT Hips
{
	OFFSET 0.000000 0.000000 0.000000 
	CHANNELS 6 Xposition Yposition Zposition Yrotation Zrotation Xrotation 
	JOINT Lumbar
	{
		OFFSET 0.000000 0.000000 0.000000 
		CHANNELS 3 Zrotation Xrotation Yrotation
		JOINT Neck
		{
			OFFSET 0.000000 0.445665 0.000000 
			CHANNELS 3 Zrotation Xrotation Yrotation
			End Site
			{
				OFFSET 0.000000 0.227535 0.000000 
			}
		}
		JOINT RightShoulder
		{
			OFFSET 0.019635 0.377685 0.194865 
			CHANNELS 3 Zrotation Xrotation Yrotation
			JOINT RightElbow
			{
				OFFSET 0.000000 -0.243375 0.000000 
				CHANNELS 2 Zrotation Yrotation
				JOINT RightWrist
				{
					OFFSET 0.000000 -0.264825 0.000000 
					CHANNELS 2 Zrotation Xrotation
					End Site
					{
						OFFSET 0.006600 -0.176220 0.000990 
					}
				}
			}
		}
		JOINT LeftShoulder
		{
			OFFSET 0.019635 0.377685 -0.194865 
			CHANNELS 3 Zrotation Xrotation Yrotation
			JOINT LeftElbow
			{
				OFFSET 0.000000 -0.243375 0.000000 
				CHANNELS 2 Zrotation Yrotation
				JOINT LeftWrist
				{
					OFFSET 0.000000 -0.264825 0.000000 
					CHANNELS 2 Zrotation Xrotation
					End Site
					{
						OFFSET 0.006600 -0.176220 -0.000990 
					}
				}
			}
		}
	}
	JOINT RightHip
	{
		OFFSET 0.052140 -0.069960 0.075570 
		CHANNELS 3 Zrotation Xrotation Yrotation
		JOINT RightKnee
		{
			OFFSET 0.000000 -0.402270 0.000000 
			CHANNELS 1 Zrotation
			JOINT RightAnkle
			{
				OFFSET 0.000000 -0.404085 0.000000 
				CHANNELS 3 Zrotation Xrotation Yrotation
				End Site
				{
					OFFSET 0.204105 -0.089430 0.008415 
				}
			}
		}
	}
	JOINT LeftHip
	{
		OFFSET 0.052140 -0.069960 -0.075570 
		CHANNELS 3 Zrotation Xrotation Yrotation
		JOINT LeftKnee
		{
			OFFSET 0.000000 -0.402270 0.000000 
			CHANNELS 1 Zrotation
			JOINT LeftAnkle
			{
				OFFSET 0.000000 -0.404085 0.000000 
				CHANNELS 3 Zrotation Xrotation Yrotation
				End Site
				{
					OFFSET 0.204105 -0.089430 -0.008415 
				}
			}
		}
	}
}
MOTION
Frames: 22
Frame Time: 0.02
0.04673 -0.0082 -0.07142 -194.08101 -35.97496 -1.37926 37.00305 6.91567 -4.10065 -8.70586 4.73736 -0.82645 -7.66453 -28.9772 21.63025 49.13605 92.09842 4.36541 2.40585 -27.13016 28.46692 -11.13312 56.05055 -91.54558 6.88741 -0.01209 46.04508 -0.77884 -13.49338 -25.74353 -6.43709 -2.08616 -1.69791 48.67149 12.3564 3.1307 -35.63644 -7.63826 3.97288 2.76799
0.04669 -0.00786 -0.06689 -194.28102 -35.89512 -1.39795 36.61499 7.01492 -3.80439 -8.54449 5.09625 -0.82658 -6.9901 -28.23798 21.54741 47.75342 91.80717 4.09783 2.50789 -27.07247 28.51284 -11.32176 56.32387 -90.91943 6.7257 0.08745 46.03941 -0.78272 -12.2241 -25.63711 -6.44226 -2.20765 -1.76585 48.46876 12.27003 3.30189 -35.33581 -7.53725 3.85422 2.69929
0.04654 -0.00756 -0.06191 -194.44464 -35.76563 -1.44389 36.16752 7.10968 -3.54907 -8.38533 5.49367 -0.82674 -6.4311 -27.35217 21.13064 46.37028 91.41776 3.81109 2.59369 -27.03641 28.54153 -11.39983 56.63749 -91.39655 6.77895 -0.03099 45.97464 -0.73518 -10.7307 -25.50635 -6.44462 -2.36591 -1.85336 48.17641 12.19256 3.56606 -34.90758 -7.44344 3.73375 2.63175
0.04645 -0.00725 -0.05709 -194.62519 -35.67357 -1.47968 35.75777 7.20344 -3.27677 -8.21977 5.87762 -0.82688 -5.79781 -26.52853 20.88165 44.94963 91.07571 3.53767 2.6809 -26.97892 28.58748 -11.54767 56.92338 -91.32727 6.72608 -0.04084 45.95483 -0.7193 -9.37232 -25.38881 -6.44933 -2.50346 -1.92972 47.94605 12.10209 3.77306 -34.54573 -7.34886 3.61912 2.56646
0.04629 -0.00693 -0.05242 -194.80337 -35.51688 -1.506 35.3029 7.3099 -2.99792 -8.07953 6.24774 -0.82704 -5.25338 -25.71736 20.56353 43.67597 90.72077 3.24478 2.79157 -26.97371 28.59752 -11.61833 57.25228 -91.36057 6.69123 -0.07196 45.85485 -0.66759 -7.86821 -25.25952 -6.44928 -2.65852 -2.016 47.62218 12.04868 4.03976 -34.14629 -7.24299 3.4828 2.4891
0.04627 -0.00663 -0.04733 -194.97786 -35.48369 -1.5582 34.92586 7.38853 -2.74253 -7.88443 6.65285 -0.82717 -4.55397 -24.84819 20.30899 42.10591 90.37095 2.98705 2.8511 -26.86102 28.67684 -11.82238 57.49854 -91.47342 6.67506 -0.1177 45.91002 -0.67889 -6.61661 -25.15025 -6.45878 -2.78559 -2.08612 47.47358 11.92049 4.20661 -33.79527 -7.16259 3.3912 2.43717
0.04655 -0.00639 -0.04125 -195.15425 -35.80436 -1.67912 34.80283 7.39618 -2.53897 -7.55815 7.16628 -0.8272 -3.38206 -23.8513 20.33377 39.65643 90.04528 2.84173 2.76119 -26.47561 28.95022 -12.41063 57.52368 -91.56638 6.67761 -0.15195 46.399 -0.87361 -6.11778 -25.09889 -6.49281 -2.82656 -2.10667 47.82716 11.58346 4.06153 -33.61463 -7.15108 3.4263 2.45672
0.04699 -0.00617 -0.03476 -195.32768 -36.25117 -1.82441 34.75588 7.37529 -2.35784 -7.17288 7.70923 -0.82721 -2.05437 -22.80323 20.43132 36.92275 89.73041 2.73073 2.62217 -25.97513 29.29309 -13.13809 57.46087 -91.70867 6.6907 -0.19575 47.04838 -1.13436 -5.88191 -25.06974 -6.53703 -2.8379 -2.11022 48.36153 11.1711 3.81614 -33.48673 -7.16494 3.50602 2.50157
0.04742 -0.00593 -0.02844 -195.50062 -36.64003 -1.95608 34.65834 7.3643 -2.16862 -6.80053 8.22495 -0.82723 -0.80782 -21.78086 20.4805 34.3579 89.42019 2.59702 2.51451 -25.50879 29.60523 -13.80826 57.42696 -91.82113 6.6887 -0.237 47.6305 -1.36673 -5.52549 -25.03258 -6.57826 -2.86271 -2.12165 48.81595 10.79328 3.62502 -33.33122 -7.16712 3.5637 2.53394
0.04758 -0.00572 -0.02219 -195.68029 -37.02976 -2.09963 34.6264 7.36564 -1.97299 -6.48581 8.80138 -0.82723 0.482 -20.74032 20.57895 31.61818 89.06757 2.49213 2.37052 -25.12233 29.91547 -14.44957 57.44119 -92.00107 6.73699 -0.2782 48.18616 -1.58955 -5.16383 -24.9846 -6.61249 -2.8891 -2.13326 49.25738 10.41402 3.39799 -33.18565 -7.17038 3.629 2.57063
0.04835 -0.00546 -0.0157 -195.84538 -37.4483 -2.22362 34.47655 7.33516 -1.79417 -6.03838 9.25662 -0.82726 1.71565 -19.73073 20.60093 29.18431 88.80537 2.33625 2.28772 -24.53878 30.24359 -15.18532 57.33376 -92.03894 6.68074 -0.31867 48.8365 -1.84969 -4.88065 -24.96618 -6.6637 -2.90431 -2.14003 49.77057 10.02031 3.22378 -33.03473 -7.17709 3.68872 2.60413
0.0508 -0.00505 -0.00869 -195.97456 -37.91542 -2.28985 33.9844 7.21863 -1.66681 -5.22818 9.38092 -0.82735 2.79519 -18.79135 20.3551 27.58534 88.80617 2.02555 2.41259 -23.46797 30.62792 -16.14868 56.91447 -91.66353 6.32894 -0.35759 49.70333 -2.1877 -4.73197 -25.01248 -6.76003 -2.89906 -2.13917 50.43245 9.60016 3.19266 -32.84679 -7.18925 3.72517 2.62437
0.05387 -0.00459 -0.00145 -196.08902 -38.40718 -2.33507 33.37122 7.07201 -1.553 -4.28917 9.38044 -0.82746 3.80594 -17.8906 20.03729 26.31734 88.89537 1.66326 2.59625 -22.19908 31.02349 -17.20209 56.37726 -91.13961 5.87115 -0.39392 50.66112 -2.56275 -4.65723 -25.09025 -6.87302 -2.88288 -2.13367 51.16118 9.1688 3.22211 -32.65386 -7.20364 3.75405 2.64028
0.05666 -0.00417 0.00569 -196.2076 -38.88836 -2.38825 32.8121 6.94259 -1.42638 -3.41528 9.42923 -0.82756 4.8233 -16.99147 19.78148 24.95164 88.93382 1.32864 2.73506 -20.99955 31.39827 -18.21494 55.8894 -90.6845 5.46397 -0.42851 51.58156 -2.92727 -4.56204 -25.16098 -6.97789 -2.86935 -2.12913 51.86387 8.746 3.24213 -32.47026 -7.21553 3.78424 2.65693
0.05944 -0.00366 0.01282 -196.33549 -39.37247 -2.44875 32.25827 6.79736 -1.33029 -2.50862 9.50877 -0.82766 5.95072 -16.01052 19.41034 23.35948 89.0162 0.9783 2.94701 -19.87584 31.84149 -19.23335 55.40751 -90.22711 5.04786 -0.47573 52.49143 -3.26821 -4.42213 -25.20094 -7.08527 -2.86433 -2.12874 52.55673 8.30659 3.18508 -32.2594 -7.23438 3.82443 2.67932
0.06237 -0.00334 0.02001 -196.4423 -39.85325 -2.48898 31.66532 6.67822 -1.17146 -1.64409 9.49636 -0.82776 6.82977 -15.20859 19.25391 22.31376 89.02924 0.64685 3.02336 -18.55796 32.14415 -20.25684 54.89748 -89.73731 4.62387 -0.49606 53.44191 -3.66526 -4.38728 -25.31327 -7.19144 -2.83971 -2.11899 53.2808 7.89928 3.30077 -32.10248 -7.23919 3.8421 2.68879
0.06564 -0.00361 0.02734 -196.47968 -40.32945 -2.47583 30.97968 6.63971 -0.85407 -0.89638 9.24144 -0.82785 7.04521 -14.90293 19.76851 22.76273 88.8171 0.39019 2.69298 -16.67445 32.05396 -21.29723 54.24297 -89.20344 4.21461 -0.44089 54.48902 -4.21592 -4.64329 -25.60921 -7.28843 -2.76091 -2.08317 54.09672 7.59052 3.9074 -32.1043 -7.2026 3.79354 2.66025
0.06901 -0.00409 0.03472 -196.49925 -40.79813 -2.44335 30.26111 6.62875 -0.46994 -0.20192 8.90121 -0.82793 7.011 -14.77417 20.48738 23.73921 88.53368 0.15245 2.22783 -14.61843 31.82215 -22.33455 53.5821 -88.64105 3.7999 -0.3591 55.57131 -4.8199 -4.99783 -25.97892 -7.38396 -2.66357 -2.03853 54.93583 7.31331 4.67995 -32.15876 -7.15214 3.72355 2.61942
0.07228 -0.00446 0.04206 -196.5366 -41.26353 -2.42125 29.56658 6.60411 -0.10397 0.49667 8.61306 -0.82801 7.0871 -14.55736 21.07602 24.43177 88.29162 -0.10086 1.83617 -12.69185 31.6559 -23.3559 52.98782 -88.08408 3.37956 -0.29056 56.63288 -5.39415 -5.29341 -26.31967 -7.48116 -2.57647 -1.9988 55.75017 7.0176 5.35938 -32.1832 -7.10921 3.66688 2.58622
0.07582 -0.00487 0.04948 -196.53211 -41.76099 -2.39164 28.82959 6.58198 0.21159 1.28581 8.26644 -0.8281 7.17531 -14.37457 21.83089 25.32207 88.01751 -0.32714 1.39423 -10.5389 31.48424 -24.45269 52.12215 -87.5496 2.98615 -0.21675 57.71968 -5.99332 -5.65096 -26.64007 -7.57443 -2.4807 -1.95473 56.6308 6.73982 6.11955 -32.2331 -7.06093 3.59448 2.54402
0.0788 -0.00524 0.05675 -196.61124 -42.18598 -2.3734 28.17474 6.56321 0.64634 1.87042 8.02039 -0.82818 7.17846 -14.16197 22.27539 25.92172 87.78863 -0.60379 1.02505 -8.82395 31.29101 -25.39179 51.81965 -86.96873 2.54126 -0.14802 58.7586 -6.55231 -5.90265 -27.02273 -7.67564 -2.39953 -1.91812 57.37324 6.43135 6.74528 -32.2427 -7.02078 3.55034 2.51799
0.08029 -0.00545 0.06367 -196.92065 -42.4427 -2.39072 27.75671 6.53321 1.40909 1.91547 8.0954 -0.82827 7.01938 -13.82866 21.93185 25.58758 87.73187 -1.03029 0.88282 -8.3211 31.06466 -25.8836 53.09275 -86.22216 1.91772 -0.09658 59.67619 -6.99112 -5.82943 -27.53513 -7.79643 -2.35627 -1.90027 57.76773 6.03957 7.00347 -32.12669 -7.00358 3.58487 2.53683
